{
  "accessors": [
    {
      "bufferView": 2,
      "componentType": 5126,
      "count": 13215,
      "max": [
        16.35515022277832,
        4.9073295593261719,
        4.9073295593261719
      ],
      "min": [
        -16.355148315429688,
        -4.9073295593261719,
        -4.9073295593261719
      ],
      "type": "VEC3"
    },
    {
      "bufferView": 2,
      "byteOffset": 158580,
      "componentType": 5126,
      "count": 13215,
      "max": [
        1,
        1,
        1
      ],
      "min": [
        -1,
        -1,
        -1
      ],
      "type": "VEC3"
    },
    {
      "bufferView": 3,
      "componentType": 5126,
      "count": 13215,
      "max": [
        0.9845883846282959,
        1,
        1,
        1
      ],
      "min": [
        -0.98459988832473755,
        -1,
        -1,
        -1
      ],
      "type": "VEC4"
    },
    {
      "bufferView": 1,
      "componentType": 5126,
      "count": 13215,
      "max": [
        0.55251002311706543,
        0.99950003623962402
      ],
      "min": [
        0.00050000002374872565,
        0.00050000002374872565
      ],
      "type": "VEC2"
    },
    {
      "bufferView": 0,
      "componentType": 5125,
      "count": 74640,
      "max": [
        13214
      ],
      "min": [
        0
      ],
      "type": "SCALAR"
    }
  ],
  "asset": {
    "extras": {
      "author": "Jorada (https://sketchfab.com/Jorada)",
      "license": "CC-BY-4.0 (http://creativecommons.org/licenses/by/4.0/)",
      "source": "https://sketchfab.com/3d-models/spiky-chain-4b6813628c684fc084fc0ee02dafd789",
      "title": "Spiky Chain"
    },
    "generator": "Sketchfab-5.43.0",
    "version": "2.0"
  },
  "bufferViews": [
    {
      "buffer": 0,
      "byteLength": 298560,
      "byteOffset": 0,
      "name": "floatBufferViews",
      "target": 34963
    },
    {
      "buffer": 0,
      "byteLength": 105720,
      "byteOffset": 298560,
      "byteStride": 8,
      "name": "floatBufferViews",
      "target": 34962
    },
    {
      "buffer": 0,
      "byteLength": 317160,
      "byteOffset": 404280,
      "byteStride": 12,
      "name": "floatBufferViews",
      "target": 34962
    },
    {
      "buffer": 0,
      "byteLength": 211440,
      "byteOffset": 721440,
      "byteStride": 16,
      "name": "floatBufferViews",
      "target": 34962
    }
  ],
  "buffers": [
    {
      "byteLength": 932880,
      "uri": "scene.bin"
    }
  ],
  "images": [
    {
      "uri": "textures/modelling_mat_1_metallicRoughness.png"
    }
  ],
  "materials": [
    {
      "doubleSided": true,
      "name": "modelling_mat_1",
      "pbrMetallicRoughness": {
        "baseColorFactor": [
          0.028843183290238352,
          0.016449958862227734,
          0.013126810335885334,
          1
        ],
        "metallicFactor": 0.2905208588,
        "metallicRoughnessTexture": {
          "index": 0,
          "texCoord": 0
        },
        "roughnessFactor": 1
      }
    }
  ],
  "meshes": [
    {
      "name": "chain_Spikes_modelling mat 1_0",
      "primitives": [
        {
          "attributes": {
            "NORMAL": 1,
            "POSITION": 0,
            "TANGENT": 2,
            "TEXCOORD_0": 3
          },
          "indices": 4,
          "material": 0,
          "mode": 4
        }
      ]
    }
  ],
  "nodes": [
    {
      "children": [
        1
      ],
      "name": "RootNode (gltf orientation matrix)",
      "rotation": [
        -0.70710678118654746,
        -0,
        -0,
        0.70710678118654757
      ]
    },
    {
      "children": [
        2
      ],
      "name": "RootNode (model correction matrix)"
    },
    {
      "children": [
        3
      ],
      "matrix": [
        1,
        0,
        0,
        0,
        0,
        0,
        1,
        0,
        0,
        -1,
        0,
        0,
        0,
        0,
        0,
        1
      ],
      "name": "64bc99b24f5e45b2ae3dab08b50cdcb2.fbx"
    },
    {
      "children": [
        4
      ],
      "name": "RootNode"
    },
    {
      "children": [
        5
      ],
      "matrix": [
        1,
        0,
        0,
        0,
        0,
        1.7484555336899632e-07,
        -0.99999999999998468,
        0,
        0,
        0.99999999999998468,
        1.7484555336899632e-07,
        0,
        11.399999618530273,
        1.5273690223693848e-07,
        3.2304044452757807e-06,
        1
      ],
      "name": "chain_Spikes"
    },
    {
      "mesh": 0,
      "name": "chain_Spikes_modelling mat 1_0"
    }
  ],
  "samplers": [
    {
      "magFilter": 9729,
      "minFilter": 9987,
      "wrapS": 10497,
      "wrapT": 10497
    }
  ],
  "scene": 0,
  "scenes": [
    {
      "name": "OSG_Scene",
      "nodes": [
        0
      ]
    }
  ],
  "textures": [
    {
      "sampler": 0,
      "source": 0
    }
  ]
}

