{
  "accessors": [
    {
      "bufferView": 2,
      "componentType": 5126,
      "count": 16019,
      "max": [
        0.0842813029885292,
        0.1116408035159111,
        0.14138789474964142
      ],
      "min": [
        -0.08305201679468155,
        -0.09111540764570236,
        -0.13895699381828308
      ],
      "type": "VEC3"
    },
    {
      "bufferView": 2,
      "byteOffset": 192228,
      "componentType": 5126,
      "count": 16019,
      "max": [
        0.9999929070472717,
        0.9999305009841919,
        0.9998454451560974
      ],
      "min": [
        -0.9999737739562988,
        -0.9999939203262329,
        -0.9999420046806335
      ],
      "type": "VEC3"
    },
    {
      "bufferView": 1,
      "componentType": 5126,
      "count": 16019,
      "max": [
        0.8930768966674805,
        0.9867039918899536
      ],
      "min": [
        0.006938000209629536,
        0.012577000074088573
      ],
      "type": "VEC2"
    },
    {
      "bufferView": 0,
      "componentType": 5125,
      "count": 85212,
      "type": "SCALAR"
    }
  ],
  "asset": {
    "extras": {
      "author": "misbazamar (https://sketchfab.com/misbazamar)",
      "license": "CC-BY-4.0 (http://creativecommons.org/licenses/by/4.0/)",
      "source": "https://sketchfab.com/3d-models/cr7-261021-901a559ea5504ef89d3a63f44b428250",
      "title": "CR7 261021"
    },
    "generator": "Sketchfab-11.90.0",
    "version": "2.0"
  },
  "bufferViews": [
    {
      "buffer": 0,
      "byteLength": 340848,
      "name": "floatBufferViews",
      "target": 34963
    },
    {
      "buffer": 0,
      "byteLength": 128152,
      "byteOffset": 340848,
      "byteStride": 8,
      "name": "floatBufferViews",
      "target": 34962
    },
    {
      "buffer": 0,
      "byteLength": 384456,
      "byteOffset": 469000,
      "byteStride": 12,
      "name": "floatBufferViews",
      "target": 34962
    }
  ],
  "buffers": [
    {
      "byteLength": 853456,
      "uri": "scene.bin"
    }
  ],
  "extensionsUsed": [
    "KHR_materials_unlit"
  ],
  "images": [
    {
      "uri": "textures/material_0_baseColor.png"
    }
  ],
  "materials": [
    {
      "doubleSided": true,
      "extensions": {
        "KHR_materials_unlit": {}
      },
      "name": "material_0",
      "pbrMetallicRoughness": {
        "baseColorTexture": {
          "index": 0
        },
        "metallicFactor": 0.0
      }
    }
  ],
  "meshes": [
    {
      "name": "Object_0",
      "primitives": [
        {
          "attributes": {
            "NORMAL": 1,
            "POSITION": 0,
            "TEXCOORD_0": 2
          },
          "indices": 3,
          "material": 0,
          "mode": 4
        }
      ]
    }
  ],
  "nodes": [
    {
      "children": [
        1
      ],
      "matrix": [
        3.2618963718414307,
        0.0,
        0.0,
        0.0,
        0.0,
        7.242864911919235e-16,
        -3.2618963718414307,
        0.0,
        0.0,
        3.2618963718414307,
        7.242864911919235e-16,
        0.0,
        0.0,
        0.0,
        0.0,
        1.0
      ],
      "name": "Sketchfab_model"
    },
    {
      "children": [
        2
      ],
      "name": "model.obj.cleaner.materialmerger.gles"
    },
    {
      "mesh": 0,
      "name": "Object_2"
    }
  ],
  "samplers": [
    {
      "magFilter": 9729,
      "minFilter": 9987,
      "wrapS": 10497,
      "wrapT": 10497
    }
  ],
  "scene": 0,
  "scenes": [
    {
      "name": "Sketchfab_Scene",
      "nodes": [
        0
      ]
    }
  ],
  "textures": [
    {
      "sampler": 0,
      "source": 0
    }
  ]
}
