<?xml version="1.0" standalone="no"?>
<!DOCTYPE svg PUBLIC "-//W3C//DTD SVG 20010904//EN"
 "http://www.w3.org/TR/2001/REC-SVG-20010904/DTD/svg10.dtd">
<svg version="1.0" xmlns="http://www.w3.org/2000/svg"
 width="1086.000000pt" height="463.000000pt" viewBox="0 0 1086.000000 463.000000"
 preserveAspectRatio="xMidYMid meet">
<metadata>
Created by potrace 1.16, written by Peter Selinger 2001-2019
</metadata>
<g transform="translate(0.000000,463.000000) scale(0.100000,-0.100000)"
fill="#000000" stroke="none">
<path d="M2510 3683 l0 -798 -47 70 c-121 183 -312 311 -561 377 -79 21 -109
23 -312 23 -177 0 -244 -4 -315 -18 -406 -82 -717 -310 -892 -653 -136 -267
-203 -567 -203 -911 0 -379 88 -724 256 -1002 139 -229 347 -410 594 -516 241
-103 580 -140 820 -90 265 56 486 210 622 436 l38 63 0 -217 0 -217 435 0 435
0 0 207 0 208 45 -68 c99 -147 253 -278 395 -338 308 -130 695 -127 963 7 201
101 308 215 446 477 l41 78 0 -291 0 -290 435 0 435 0 0 965 c0 611 -4 1001
-11 1063 -9 88 -37 242 -55 300 l-6 22 136 0 136 0 0 -724 c0 -464 4 -752 11
-802 37 -267 137 -473 292 -602 102 -85 276 -154 462 -183 39 -6 251 -13 473
-16 l402 -6 0 97 0 97 43 -34 c118 -95 229 -147 412 -193 124 -32 349 -43 476
-24 265 38 497 175 636 376 12 16 51 84 87 150 l66 119 0 -292 0 -293 435 0
436 0 -4 1058 c-4 1153 -2 1112 -63 1312 -126 413 -411 639 -914 726 -129 22
-548 31 -707 14 -223 -22 -396 -67 -538 -137 -84 -42 -141 -82 -257 -180 l-88
-73 0 155 0 155 -390 0 -390 0 0 480 0 480 -38 0 c-40 0 -659 -45 -769 -55
l-63 -7 0 -454 0 -454 -255 0 -255 0 0 -132 0 -132 -42 40 c-156 148 -353 236
-643 285 -156 26 -489 36 -675 20 -399 -35 -646 -134 -877 -354 -91 -86 -135
-153 -184 -275 l-38 -97 0 933 -1 932 -435 0 -435 0 0 -797z m-485 -1053 c232
-73 373 -234 441 -501 22 -86 30 -412 14 -549 -44 -380 -212 -623 -496 -716
-79 -26 -102 -29 -209 -28 -149 1 -246 29 -359 104 -178 120 -275 282 -322
540 -24 132 -25 450 -1 575 63 343 221 524 512 591 94 21 331 13 420 -16z
m2909 15 c198 -37 294 -132 304 -296 9 -155 -59 -208 -318 -249 -435 -69 -877
-180 -1077 -270 -175 -79 -344 -227 -429 -375 l-34 -60 0 469 0 469 58 -6
c146 -16 774 -58 786 -54 7 3 16 23 19 44 10 56 59 152 105 204 48 53 136 103
218 123 78 19 273 20 368 1z m4443 0 c94 -18 192 -64 229 -108 15 -18 38 -56
52 -85 20 -45 24 -65 20 -132 -2 -60 -8 -85 -24 -107 -33 -45 -117 -81 -239
-103 -555 -100 -660 -124 -945 -211 -271 -84 -399 -159 -533 -314 -122 -141
-165 -262 -174 -488 l-6 -147 -136 0 c-240 0 -313 24 -368 117 l-28 48 -3 728
-3 727 299 0 299 0 -13 -50 c-7 -27 -16 -81 -20 -119 l-6 -69 78 -6 c206 -17
761 -56 790 -56 30 0 32 3 38 43 23 149 154 287 315 329 84 22 271 23 378 3z
m-4118 -1215 c-26 -132 -108 -283 -205 -374 -65 -63 -185 -136 -274 -167 -56
-20 -84 -23 -211 -24 l-146 0 -69 35 c-110 56 -156 134 -155 261 0 172 134
271 480 359 300 75 486 147 546 210 l30 31 7 -138 c5 -88 4 -158 -3 -193z
m4444 25 c-15 -128 -97 -291 -194 -387 -74 -72 -204 -153 -294 -181 -58 -18
-93 -22 -210 -22 -130 0 -144 2 -196 26 -105 49 -160 127 -167 237 -7 95 12
147 75 210 69 69 179 121 353 168 374 99 536 160 595 223 l30 32 7 -128 c4
-70 5 -150 1 -178z"/>
</g>
</svg>
