<?xml version="1.0" encoding="utf-8"?>
<!-- Generator: Adobe Illustrator 23.0.0, SVG Export Plug-In . SVG Version: 6.00 Build 0)  -->
<svg version="1.1" xmlns="http://www.w3.org/2000/svg" xmlns:xlink="http://www.w3.org/1999/xlink" x="0px" y="0px"
	 viewBox="3 32 92 38" style="enable-background:new 0 0 100 100;" xml:space="preserve">
<style type="text/css">
	.st0{fill:#FFFFFF;}
</style>
<g id="Livello_1">
</g>
<g id="Livello_2">
	<g>
		<path d="M34,49.8l0.2,0v-1.7C34.1,48.7,34,49.2,34,49.8z"/>
		<path d="M34,49.8l0.2,0v-1.7C34.1,48.7,34,49.2,34,49.8z"/>
		<path d="M88,44.3c-1.8-1.7-4.5-2.5-8.3-2.5c-3.1,0-5.5,0.5-7.1,1.5c-0.9,0.6-1.6,1.2-2.2,1.8v-2.6h-6.1V35l-6.7,0.5v7.1h-4v2.1
			c-0.1-0.1-0.2-0.2-0.3-0.3c-1.8-1.7-4.5-2.5-8.3-2.5c-3.1,0-5.5,0.5-7.1,1.5c-1.6,1-2.7,2.1-3.1,3.3c-0.2,0.5-0.4,1-0.5,1.4v1.7
			l6.7,0.5c0.1-0.8,0.4-1.5,1.1-2.2c0.7-0.6,1.6-0.9,2.9-0.9c1.2,0,2.1,0.2,2.7,0.5s1,0.8,1.2,1.5c0.1,0.7,0.1,1.1-0.1,1.5
			c-0.2,0.3-0.5,0.5-1,0.7c-0.4,0.1-1.2,0.3-2.2,0.4l-1,0.2c-2.3,0.4-4.1,0.9-5.6,1.4c-1.5,0.5-2.7,1.3-3.7,2.4
			c-0.4,0.5-0.7,1-1,1.6v-7.5l-0.2,0c0-0.5,0.1-1.1,0.2-1.7V33.1h-6.7v12.6c-0.6-1.2-1.5-2.1-2.5-2.7c-1.3-0.8-2.8-1.2-4.5-1.2
			c-2.5,0-4.5,0.5-6.2,1.6c-1.7,1-2.9,2.5-3.7,4.3c-0.8,1.8-1.3,4-1.3,6.4c0,2.4,0.4,4.6,1.3,6.5c0.8,1.9,2.1,3.5,3.8,4.6
			c1.7,1.1,3.7,1.7,6.1,1.7c2.6,0,4.7-1,6.2-2.9c0.3-0.4,0.6-0.9,0.8-1.3v3.5h6.7v-3.6c0.1,0.4,0.3,0.7,0.6,1.1
			c0.7,1,1.6,1.8,2.8,2.4c1.2,0.5,2.5,0.8,3.9,0.8c1.5,0,2.8-0.3,3.9-0.9c1.1-0.6,2-1.4,2.6-2.4c0.4-0.7,0.8-1.4,1.1-2.1v4.8h6.7
			V52.2c0-1.6-0.2-3.1-0.6-4.3h2.2v10c0,2.9,0.7,5,2,6.3c1.3,1.3,3.3,1.9,5.9,1.9h4.9v-1.5c0.6,0.5,1.2,1,2,1.3
			c1.2,0.5,2.5,0.8,3.9,0.8c1.5,0,2.8-0.3,3.9-0.9c1.1-0.6,2-1.4,2.6-2.4c0.4-0.7,0.8-1.4,1.1-2.1v4.8h6.7V52.2
			C90.6,48.6,89.8,46,88,44.3z M26.8,58.2c-0.5,1.2-1.2,2-2.1,2.6c-0.8,0.5-1.8,0.8-2.8,0.8c-1.6,0-2.9-0.6-4-1.8
			c-1.1-1.2-1.6-3.1-1.6-5.7c0-1.8,0.3-3.2,0.8-4.2c0.5-1,1.2-1.7,2-2.1c0.8-0.4,1.8-0.6,2.8-0.6c1,0,2,0.2,2.8,0.6
			c0.8,0.4,1.5,1.1,2,2c0.5,1,0.8,2.2,0.8,3.8C27.5,55.5,27.3,57,26.8,58.2z M49.2,55.8c0,1.1-0.3,2.1-0.8,2.9
			c-0.5,0.9-1.2,1.5-2.1,2c-0.8,0.5-1.7,0.7-2.7,0.7c-0.9,0-1.6-0.2-2.1-0.6c-0.5-0.4-0.8-1-0.8-1.8c0-0.7,0.3-1.3,0.9-1.7
			c0.6-0.5,1.5-0.8,2.6-1.1c1.7-0.4,3-0.8,3.8-1.2c0.5-0.2,0.8-0.5,1.1-0.9V55.8z M70,55.7c-1,1.1-1.4,2.5-1.4,4.2
			c0,0.3,0,0.6,0,0.8h-1.1c-0.9,0-1.6-0.1-2.1-0.2c-0.4-0.2-0.7-0.5-0.9-0.9c-0.2-0.5-0.2-1.2-0.2-2.2v-9.5h4.8
			c-0.2,0.7-0.3,1.3-0.3,1.9l6.9,0.5c0.1-0.8,0.4-1.5,1.1-2.2c0.7-0.6,1.6-0.9,2.9-0.9c1.2,0,2.1,0.2,2.7,0.5s1,0.8,1.2,1.5
			c0.1,0.7,0.1,1.1-0.1,1.5c-0.2,0.3-0.5,0.5-1,0.7c-0.4,0.1-1.2,0.3-2.2,0.4l-1,0.2c-2.3,0.4-4.1,0.9-5.6,1.4
			C72.2,53.8,70.9,54.6,70,55.7z M83.9,55.8c0,1.1-0.3,2.1-0.8,2.9c-0.5,0.9-1.2,1.5-2.1,2c-0.8,0.5-1.7,0.7-2.7,0.7
			c-0.9,0-1.6-0.2-2.1-0.6c-0.5-0.4-0.8-1-0.8-1.8c0-0.7,0.3-1.3,0.9-1.7c0.6-0.5,1.5-0.8,2.6-1.1c1.7-0.4,3-0.8,3.8-1.2
			c0.5-0.2,0.8-0.5,1.1-0.9V55.8z"/>
	</g>
</g>
</svg>
